<svg version="1.2" xmlns="http://www.w3.org/2000/svg" viewBox="0 0 91 33" width="91" height="33"><style>.a{display:none}.b{fill:#fff}.c{fill:#ff4c60}.d{fill:#d84545}</style><path class="a" d="m-21-26h147v67h-147z"/><g style="display:none"><path fill-rule="evenodd" class="b" d="m1.3 26q-0.3 0-0.6-0.3-0.3-0.2-0.3-0.6v-23.4q0-0.4 0.3-0.6 0.3-0.3 0.6-0.3h11.2q4.5 0 6.8 1.9 2.2 1.8 2.2 5.3 0 1.7-0.9 3-0.9 1.2-2 1.8 1.4 0.7 2.4 2.2 1 1.5 1 3.3 0 3.7-2.3 5.7-2.4 2-6.9 2zm12.4-15.9q0.7-0.8 0.7-1.9 0-1.1-0.7-1.8-0.7-0.7-2-0.7h-4.5v5.1h4.5q1.3 0 2-0.7zm0.5 10.2q0.7-0.8 0.7-2 0-1.2-0.8-2-0.7-0.8-2.1-0.8h-4.8v5.6h4.8q1.4 0 2.2-0.8zm13.3 4q-2.4-2.2-2.7-6 0-0.5 0-1.4v-0.3q0-1.1 0-1.6 0.3-3.8 2.8-5.9 2.5-2.2 6.9-2.2 4.3 0 6.8 2.2 2.5 2.1 2.8 5.9 0 1 0 1.6 0 0.7 0 1.7-0.3 3.8-2.7 6-2.4 2.1-6.9 2.1-4.6 0-7-2.1zm9.1-3.4q0.8-0.9 0.9-2.8 0-0.4 0-1.5 0-1 0-1.4-0.1-1.9-0.9-2.8-0.7-0.9-2.1-0.9-1.5 0-2.2 0.9-0.8 0.9-0.9 2.8v1.4 1.5q0.1 1.9 0.9 2.8 0.7 0.9 2.2 0.9 1.4 0 2.1-0.9zm11.9 5.1q-0.4 0-0.7-0.3-0.2-0.2-0.2-0.6v-23.8q0-0.4 0.2-0.6 0.3-0.3 0.7-0.3h4.5q0.4 0 0.6 0.3 0.3 0.2 0.3 0.6v23.8q0 0.4-0.3 0.6-0.2 0.3-0.6 0.3zm15.6-2v1.1q0 0.4-0.2 0.6-0.3 0.3-0.7 0.3h-4.3q-0.4 0-0.6-0.3-0.3-0.2-0.3-0.6v-23.8q0-0.4 0.3-0.6 0.2-0.3 0.6-0.3h4.7q0.4 0 0.6 0.3 0.3 0.2 0.3 0.6v7.7q2-2.1 5.2-2.1 3.5 0 5.5 2.3 2 2.2 2.1 6.1 0.1 0.5 0.1 1.3 0 0.8-0.1 1.3-0.1 4.1-2.1 6.3-2 2.2-5.5 2.2-3.6 0-5.6-2.4zm5.8-3.6q0.7-1 0.8-2.6 0.1-0.4 0.1-1.2 0-0.7-0.1-1.1-0.1-1.7-0.8-2.6-0.7-1-2.3-1-1.5 0-2.3 0.9-0.8 1-0.8 2.4-0.1 0.4-0.1 1.1v0.2q0 0.9 0.1 1.4 0 1.5 0.8 2.5 0.8 1 2.3 1 1.6 0 2.3-1zm13.7 12.4q-0.4 0-0.6-0.2-0.2-0.2-0.2-0.5 0-0.3 0.1-0.5l2.8-6.8-6.9-16.3q-0.1-0.3-0.1-0.4 0.1-0.4 0.3-0.6 0.2-0.2 0.6-0.2h4.2q0.8 0 1.1 0.7l4 10.3 4.1-10.3q0.3-0.7 1.1-0.7h4.2q0.3 0 0.6 0.2 0.2 0.2 0.2 0.5 0 0.3-0.1 0.5l-10.2 23.6q-0.3 0.7-1.1 0.7z"/><path class="c" d="m105.5 26q0.4 0 0.6-0.3 0.3-0.2 0.3-0.6v-4.8q0-0.3-0.3-0.6-0.2-0.3-0.6-0.3h-4.8q-0.4 0-0.6 0.3-0.3 0.3-0.3 0.6v4.8q0 0.4 0.3 0.6 0.2 0.3 0.6 0.3z"/></g><path class="b" d="m22 22.5l0.4 4.4h-17.4q-0.1-0.3-0.1-0.5 0-0.3 0-0.5 0-0.9 0.1-1.6 0.2-0.8 0.4-1.5 0.2-0.7 0.5-1.3 0.3-0.6 0.6-1.1 0.7-1.2 1.6-2.2 0.6-0.6 1.7-1.2 1-0.5 2.5-1.2 1.6-0.7 4-1.4 0.2-1.4 0.2-2.7 0-0.8-0.1-1.6-0.1-0.8-0.3-1.6-0.6 0-1.2-0.1-0.6 0-1.2 0-1.8 0-3.6 0.4-0.1 0.7-0.1 1.3-0.1 0.7-0.1 1.4 0 1.1 0.2 2.2l-5.8 0.1q0-0.3 0-0.6 0-0.3 0-0.6 0-1.4 0.4-2.6 0.4-1.1 1-1.9 0.7-0.9 1.6-1.4 0.8-0.6 1.7-1 2.1-0.9 4.8-1 2.2 0 3.8 0.5 1.6 0.5 2.6 1.4 1.1 0.9 1.6 2.1 0.5 1.1 0.5 2.5 0 1.5-0.6 2.7-0.6 1.1-1.5 2.1-1 0.9-2.2 1.6-1.1 0.7-2.4 1.2-1.2 0.5-2.3 0.9-1.2 0.4-2 0.7l-0.2 2.1zm21.8-1.5q0 1.9-0.8 3.2-0.7 1.3-2.1 2.1-1.3 0.8-3.1 1.2-1.9 0.4-4.1 0.4-0.9 0-2-0.2-1-0.2-2.1-0.6-1-0.4-1.9-1-1-0.6-1.7-1.5-0.8-0.9-1.3-2-0.5-1.1-0.6-2.5l6.4-0.2q-0.1 0.4-0.1 0.9 0 0.4 0 0.8 0 1.3 0.1 2.6 0.9 0.1 1.8 0.2 0.8 0 1.7 0 0.8 0 1.7 0 0.8-0.1 1.7-0.2 0.1-0.5 0.1-0.9 0.1-0.5 0.1-1 0-0.8-0.1-1.7-0.1-0.8-0.3-1.6-1-0.1-2.3-0.3-1.4-0.1-2.8-0.4-1.4-0.3-2.7-0.7-1.4-0.5-2.4-1.3-1.1-0.8-1.7-1.9-0.7-1.2-0.7-2.8 0-1.1 0.4-2 0.5-1 1.2-1.7 0.7-0.7 1.6-1.2 1-0.6 2-0.9 1.1-0.4 2.1-0.6 1.1-0.2 2.1-0.2 2.2 0 3.9 0.7 1.7 0.7 2.9 1.8 1.1 1.1 1.8 2.5 0.6 1.4 0.7 2.8l-6.7 0.7q0.1-0.5 0.1-1.1 0-0.6 0-1.1 0-1.3-0.2-2.6-0.5-0.1-1-0.1-0.5 0-0.9 0-2 0-4 0.5-0.1 0.3-0.1 0.7 0 0.3 0 0.7 0 1 0.1 2 0.1 1 0.3 2 1.2 0.1 2.7 0.3 1.4 0.2 2.8 0.5 1.4 0.3 2.8 0.7 1.3 0.5 2.3 1.1 1 0.7 1.7 1.6 0.6 1 0.6 2.3zm20.1-8q0 2.3-0.8 3.9-0.8 1.7-2.4 2.8-1.5 1.1-3.6 1.7-2.2 0.6-4.8 0.8 0.1 1.2 0.2 2.4 0.2 1.3 0.3 2.6l-6.9 0.5q0.3-3.7 0.4-7.4 0.2-3.8 0.2-7.6 0-0.9 0-1.7 0-0.8-0.1-1.6 0-0.8 0-1.6-0.1-0.8-0.1-1.8 1.8-0.5 3.6-0.8 1.8-0.2 3.8-0.2 1 0 2.1 0.1 1.2 0.1 2.3 0.4 1.1 0.3 2.2 0.9 1 0.5 1.8 1.4 0.9 0.9 1.3 2.2 0.5 1.3 0.5 3zm-12.2-4.9q0.1 1.4 0.1 2.7 0 1.3 0 2.7 0 1.3 0.1 2.6 0 1.3 0.1 2.7h0.6q1.3 0 2.6-0.1 1.3 0 2.4-0.2 0.2-0.8 0.3-2 0.1-1.2 0.1-2.6 0-0.9 0-1.7-0.1-0.9-0.1-1.7-0.1-0.8-0.2-1.4-0.2-0.7-0.3-1.2-0.2 0-0.5-0.1-0.3 0-0.6 0-0.7 0-1.5 0.1-0.7 0-1.4 0.1-0.8 0-1.7 0.1zm29.6 14.8v4.6q-2-0.1-4.1-0.2-2 0-4.1 0-1.7 0-3.4 0-1.8 0.1-3.6 0.3 0.1-2.7 0.2-5.3 0-2.6 0-5.2 0-3 0-5.9-0.1-2.9-0.2-5.8h6.5q-0.1 3.5-0.1 6.8-0.1 1.4-0.1 2.9 0 1.5 0 2.9 0 1.5 0 2.8 0 1.3 0 2.4z"/><path class="d" d="m88.3 26.1q0 0.4-0.2 0.8-0.2 0.4-0.6 0.6-0.4 0.3-0.9 0.5-0.4 0.1-1 0.2-0.6 0-1.1-0.2-0.5-0.2-0.8-0.4-0.4-0.3-0.6-0.7-0.2-0.4-0.2-0.8 0-0.4 0.2-0.8 0.2-0.4 0.6-0.7 0.3-0.3 0.8-0.4 0.5-0.2 1.1-0.2 0.5 0 1 0.1 0.5 0.2 0.9 0.5 0.4 0.3 0.6 0.7 0.2 0.3 0.2 0.8z"/></svg>