<svg version="1.2" xmlns="http://www.w3.org/2000/svg" viewBox="0 0 310 309" width="90" height="90"><style>.a{display:none;fill:#fefefe}.b{fill:#6c6ce5}.c{fill:#ffdd72;stroke:#49156a;stroke-linecap:round;stroke-linejoin:round;stroke-width:4.2}.d{fill:none;stroke:#49156a;stroke-linecap:round;stroke-linejoin:round;stroke-width:4.2}</style><path class="a" d="m2199.3 901.4h-2332.3v-1929.4h2332.3z"/><path class="b" d="m309.4 273.3c0 19.5-15.8 35.3-35.3 35.3h-237.9c-19.5 0-35.3-15.8-35.3-35.3v-237.9c0-19.5 15.8-35.3 35.3-35.3h237.9c19.5 0 35.3 15.8 35.3 35.3z"/><path class="c" d="m23.8 51.2v159.3h218.7l44 47v-206.3z"/><path class="d" d="m48.7 84.2h212.9"/><path class="d" d="m48.7 114.8h46.1"/><path class="d" d="m115.7 114.8h145.2"/><path class="d" d="m48.7 145.3h109.5"/><path class="d" d="m184.3 145.3h77.3"/><path class="d" d="m48.7 175.9h212.9"/></svg>