<svg version="1.2" xmlns="http://www.w3.org/2000/svg" viewBox="0 0 310 310" width="90" height="90"><style>.a{display:none;fill:#fefefe}.b{fill:#ffdd72}.c{fill:none;stroke:#49156a;stroke-linecap:round;stroke-linejoin:round;stroke-width:4.2}.d{fill:#cccdcf;stroke:#49156a;stroke-linecap:round;stroke-linejoin:round;stroke-width:4.2}.e{fill:#00bbf1;stroke:#49156a;stroke-linecap:round;stroke-linejoin:round;stroke-width:4.2}.f{fill:#fefefe;stroke:#49156a;stroke-linecap:round;stroke-linejoin:round;stroke-width:4.2}.g{fill:#a6a9ab;stroke:#49156a;stroke-linecap:round;stroke-linejoin:round;stroke-width:4.2}</style><path class="a" d="m881.3 1353.4h-2332.3v-1929.4h2332.3z"/><path class="b" d="m309.2 273.9c0 19.5-15.8 35.3-35.3 35.3h-237.9c-19.5 0-35.3-15.8-35.3-35.3v-237.9c0-19.5 15.8-35.3 35.3-35.3h237.9c19.5 0 35.3 15.8 35.3 35.3z"/><path class="c" d="m151.7 102.7v-31.6c0-7.2 5.8-13 13-13h31.6"/><path class="d" d="m261.3 184.5c0 7.4-6 13.4-13.4 13.4h-191.2c-7.4 0-13.4-6-13.4-13.4v-68c0-7.4 6-13.3 13.4-13.3h191.2c7.4 0 13.4 5.9 13.4 13.3z"/><path class="e" d="m66.4 128.2h-8.7v-8.8h8.7z"/><path class="e" d="m84.5 128.2h-8.8v-8.8h8.8z"/><path class="e" d="m102.5 128.2h-8.7v-8.8h8.7z"/><path class="e" d="m120.6 128.2h-8.8v-8.8h8.8z"/><path class="e" d="m138.6 128.2h-8.7v-8.8h8.7z"/><path class="e" d="m156.7 128.2h-8.8v-8.8h8.8z"/><path class="e" d="m174.7 128.2h-8.7v-8.8h8.7z"/><path class="e" d="m192.8 128.2h-8.8v-8.8h8.8z"/><path class="e" d="m210.8 128.2h-8.7v-8.8h8.7z"/><path class="e" d="m228.9 128.2h-8.8v-8.8h8.8z"/><path class="e" d="m246.9 128.2h-8.7v-8.8h8.7z"/><path class="e" d="m66.4 146h-8.7v-8.8h8.7z"/><path class="e" d="m84.5 146h-8.8v-8.8h8.8z"/><path class="e" d="m102.5 146h-8.7v-8.8h8.7z"/><path class="e" d="m120.6 146h-8.8v-8.8h8.8z"/><path class="e" d="m138.6 146h-8.7v-8.8h8.7z"/><path class="e" d="m156.7 146h-8.8v-8.8h8.8z"/><path class="e" d="m174.7 146h-8.7v-8.8h8.7z"/><path class="e" d="m192.8 146h-8.8v-8.8h8.8z"/><path class="e" d="m210.8 146h-8.7v-8.8h8.7z"/><path class="e" d="m228.9 146h-8.8v-8.8h8.8z"/><path class="e" d="m66.4 163.8h-8.7v-8.8h8.7z"/><path class="e" d="m84.5 163.8h-8.8v-8.8h8.8z"/><path class="e" d="m102.5 163.8h-8.7v-8.8h8.7z"/><path class="e" d="m120.6 163.8h-8.8v-8.8h8.8z"/><path class="e" d="m138.6 163.8h-8.7v-8.8h8.7z"/><path class="e" d="m156.7 163.8h-8.8v-8.8h8.8z"/><path class="e" d="m174.7 163.8h-8.7v-8.8h8.7z"/><path class="e" d="m192.8 163.8h-8.8v-8.8h8.8z"/><path class="e" d="m210.8 163.8h-8.7v-8.8h8.7z"/><path class="e" d="m238.2 137.2v17.8h-17.8v8.8l26.5-0.1v-8.7-17.8z"/><path class="e" d="m66.4 181.6h-8.7v-8.8h8.7z"/><path class="e" d="m84.5 181.6h-8.8v-8.8h8.8z"/><path class="e" d="m192.3 181.6h-98.5v-8.8h98.5z"/><path class="e" d="m210.8 181.6h-8.7v-8.8h8.7z"/><path class="e" d="m228.9 181.6h-8.8v-8.8h8.8z"/><path class="e" d="m246.9 181.6h-8.7v-8.8h8.7z"/><path class="f" d="m271.7 219.5c0 0-7.2-7-9.8-17.1-2.8-10.7-4.9-26.5-6.5-33.6-3.9-16.7-14.8-35.1-21.3-32.9-2.3 0.8-1.6 6.1 2.5 12 4.1 6 5.3 11.7 3 12.3 0 0-7.2-12.1-14.8-22.1-6.4-8.4-14.4-16-17.9-12.6-2.3 2.3-0.3 7.3 4 12.7 13.9 17.9 14.5 18.1 16.5 24.5 0 0-6.7-7.3-11.7-12.3-5.1-5-25.7-27.6-31.3-21.7-5.5 5.8 3.5 11 9.7 15.7 4.7 3.6 19.6 17.2 21.8 23 0 0-11.4-7.5-14.5-9.5-3-1.9-20.9-16.8-24.8-13.1-4.3 4.2 2.1 10.4 6.7 13.4 9.5 6.1 31.7 29 30.4 32.6-0.6 1.8-5-2.3-10.9-5.8-7.9-4.8-13.9-5.7-15.6-1.6-1.6 4.1 3.9 7.9 15.1 16.2 14.9 11 25.9 15.7 29 22.8 1 2.4 5.9 11.2 5.9 11.2z"/><path class="g" d="m278.1 223.9l-42.9 18.2-7.7-18.1 42.9-18.2z"/><path class="e" d="m285.9 230.5l-50.4 21.4-7.7-18.2 50.4-21.3z"/><path class="f" d="m38.2 219.5c0 0 7.1-7 9.7-17.1 2.8-10.7 4.9-26.5 6.6-33.6 3.9-16.7 14.8-35.1 21.3-32.9 2.3 0.8 1.6 6.1-2.5 12-4.1 6-5.3 11.7-3.1 12.3 0 0 7.3-12.1 14.9-22.1 6.3-8.4 14.3-16 17.8-12.6 2.4 2.3 0.3 7.3-4 12.7-13.9 17.9-14.5 18.1-16.4 24.5 0 0 6.7-7.3 11.7-12.3 5-5 25.6-27.6 31.2-21.7 5.6 5.8-3.5 11-9.6 15.7-4.7 3.6-19.6 17.2-21.9 23 0 0 11.4-7.5 14.5-9.5 3.1-1.9 21-16.8 24.8-13.1 4.3 4.2-2 10.4-6.7 13.4-9.5 6.1-31.6 29-30.3 32.6 0.6 1.8 5-2.3 10.8-5.8 8-4.8 13.9-5.7 15.6-1.6 1.7 4.1-3.8 7.9-15 16.2-14.9 11-25.9 15.7-29 22.8-1.1 2.4-6 11.2-6 11.2z"/><path class="g" d="m31.8 223.9l42.9 18.2 7.7-18.1-42.9-18.2z"/><path class="e" d="m24 230.5l50.4 21.4 7.6-18.2-50.3-21.3z"/></svg>