<svg version="1.2" xmlns="http://www.w3.org/2000/svg" viewBox="0 0 310 310" width="90" height="90"><style>.a{fill:#ffdd72}.b{fill:#a0a3a5;stroke:#49156a;stroke-linecap:round;stroke-linejoin:round;stroke-width:4.2}.c{fill:#808284;stroke:#49156a;stroke-linecap:round;stroke-linejoin:round;stroke-width:4.2}.d{fill:#fefefe;stroke:#49156a;stroke-linecap:round;stroke-linejoin:round;stroke-width:4.2}.e{fill:#00bbf1;stroke:#49156a;stroke-linecap:round;stroke-linejoin:round;stroke-width:4.2}.f{fill:#49156a}</style><path class="a" d="m309.4 273.9c0 19.4-15.8 35.2-35.3 35.2h-237.9c-19.5 0-35.3-15.8-35.3-35.2v-238c0-19.4 15.8-35.2 35.3-35.2h237.9c19.5 0 35.3 15.8 35.3 35.2z"/><path class="b" d="m201.2 253.7h-92.1v-39.7h92.1z"/><path class="c" d="m228.1 247.3h-145.8v14.6h145.8z"/><path class="c" d="m286 205.2c0 7.8-6.3 14-14 14h-233.7c-7.7 0-14-6.2-14-14v-137.9c0-7.7 6.3-14 14-14h233.7c7.7 0 14 6.3 14 14z"/><path class="d" d="m275.5 198.4h-240.6v-134h240.6z"/><path class="e" d="m86.7 129.4l40.4-18.1 6.4 14.3-24.8 11.1 24.8 11.1-6.4 14.2-40.4-18z"/><path class="e" d="m158.6 170.6h-15.8l8.9-68.7h15.9z"/><path class="e" d="m223.7 144l-40.5 18-6.4-14.2 24.8-11.1-24.8-11.1 6.4-14.3 40.5 18.1z"/><path class="f" d="m161.2 208.4c0 3.4-2.7 6.1-6 6.1-3.4 0-6.1-2.7-6.1-6.1 0-3.3 2.7-6 6.1-6 3.3 0 6 2.7 6 6z"/></svg>