<svg version="1.2" xmlns="http://www.w3.org/2000/svg" viewBox="0 0 310 310" width="90" height="90"><style>.a{display:none;fill:#fefefe}.b{fill:#f294bd}.c{fill:#f58b4d;stroke:#49156a;stroke-linecap:round;stroke-linejoin:round;stroke-width:4.2}.d{fill:#ffdd72;stroke:#49156a;stroke-linecap:round;stroke-linejoin:round;stroke-width:4.2}.e{fill:#00bbf1;stroke:#49156a;stroke-linecap:round;stroke-linejoin:round;stroke-width:4.2}.f{fill:#fefefe;stroke:#49156a;stroke-linecap:round;stroke-linejoin:round;stroke-width:4.2}.g{fill:#cccdcf;stroke:#49156a;stroke-linecap:round;stroke-linejoin:round;stroke-width:4.2}</style><path class="a" d="m1316.3 1795.4h-2332.3v-1929.4h2332.3z"/><path class="b" d="m309.5 273.9c0 19.4-15.8 35.2-35.3 35.2h-237.9c-19.5 0-35.3-15.8-35.3-35.2v-238c0-19.4 15.8-35.2 35.3-35.2h237.9c19.5 0 35.3 15.8 35.3 35.2z"/><path class="c" d="m163.6 195.8c0 0 22.5 11.3 5 45.4-17.5 34.2-12.1 43.9-12.1 43.9 0 0-49.3-36.5-17.4-89.3z"/><path class="d" d="m149.3 200.2c0 0-24.7 31.8-4.3 57.7 0 0 0-9.7 13.6-20.8 7.4-6.1 18.2-20.2 5-37.7z"/><path class="e" d="m192.3 103.5c0 0 41.8 1.4 32.1 92.9 0 0-5.2-34.1-39.6-34.1z"/><path class="e" d="m118.2 103.5c0 0-41.8 1.4-32.1 92.9 0 0 5.2-34.1 39.5-34.1z"/><path class="f" d="m172.4 204.1c12.2-17.6 25.3-47.4 25.3-81.2 0-54.3-31.7-98.2-43.1-98.2-12.3 0-43 43.9-43 98.2 0 33.8 11.9 63.6 23.8 81.2z"/><path class="d" d="m183.6 59.8c-10-21.5-22.6-35.1-29-35.1-6.9 0-19.4 13.6-29.2 35.1z"/><path class="g" d="m184.7 114.4c0 16.6-13.5 30-30.1 30-16.5 0-30-13.4-30-30 0-16.6 13.5-30 30-30 16.6 0 30.1 13.4 30.1 30z"/><path class="e" d="m175.5 114.4c0 11.5-9.3 20.9-20.9 20.9-11.5 0-20.8-9.4-20.8-20.9 0-11.5 9.3-20.9 20.8-20.9 11.6 0 20.9 9.4 20.9 20.9z"/><path class="e" d="m159.1 105.8l-5.9 7.3"/><path class="e" d="m160.3 112.3l-10.2 12.7"/></svg>