<svg version="1.2" xmlns="http://www.w3.org/2000/svg" viewBox="0 0 310 309" width="90" height="90"><style>.a{display:none;fill:#fefefe}.b{fill:#39bba1}.c{fill:#c0c1c3;stroke:#49156a;stroke-linecap:round;stroke-linejoin:round;stroke-width:4.2}.d{fill:#fefefe;stroke:#49156a;stroke-linecap:round;stroke-linejoin:round;stroke-width:4.2}.e{fill:#00bbf1;stroke:#49156a;stroke-linecap:round;stroke-linejoin:round;stroke-width:4.2}.f{fill:#ffdd72;stroke:#49156a;stroke-linecap:round;stroke-linejoin:round;stroke-width:4.2}.g{fill:none;stroke:#49156a;stroke-linecap:round;stroke-linejoin:round;stroke-width:4.2}</style><path class="a" d="m443.3 443.4h-2332.3v-1929.4h2332.3z"/><path class="b" d="m309.4 273.5c0 19.4-15.8 35.2-35.3 35.2h-237.9c-19.5 0-35.3-15.8-35.3-35.2v-238c0-19.5 15.8-35.3 35.3-35.3h237.9c19.5 0 35.3 15.8 35.3 35.3z"/><path class="c" d="m235 260c0 14.2-11.5 25.8-25.7 25.8h-108.2c-14.2 0-25.8-11.6-25.8-25.8v-211c0-14.2 11.6-25.8 25.8-25.8h108.2c14.2 0 25.7 11.6 25.7 25.8z"/><path class="d" d="m224.6 253.3h-138.9v-205.3h138.9z"/><path class="e" d="m163.2 269.6c0 4.5-3.6 8.1-8 8.1-4.5 0-8.1-3.6-8.1-8.1 0-4.4 3.6-8 8.1-8 4.4 0 8 3.6 8 8z"/><path class="e" d="m159.7 35.8c0 2.5-2 4.5-4.5 4.5-2.5 0-4.5-2-4.5-4.5 0-2.5 2-4.5 4.5-4.5 2.5 0 4.5 2 4.5 4.5z"/><path class="f" d="m203.8 189h-97.3v-13.8h97.3z"/><path class="f" d="m176 164.8h-69.5v-13.8h69.5z"/><path class="f" d="m148.7 140.6h-42.2v-13.8h42.2z"/><path class="f" d="m132.4 116.4h-25.9v-13.8h25.9z"/><path class="g" d="m99.7 206.2h110.9"/><path class="g" d="m99.7 216.6h110.9"/><path class="g" d="m99.7 227h110.9"/><path class="g" d="m99.7 237.3h110.9"/><path class="e" d="m204.1 80.2h-97.9v-14.4h97.9z"/></svg>